<?xml version="1.0" standalone="no"?>
<!DOCTYPE svg PUBLIC "-//W3C//DTD SVG 20010904//EN"
 "http://www.w3.org/TR/2001/REC-SVG-20010904/DTD/svg10.dtd">
<svg version="1.0" xmlns="http://www.w3.org/2000/svg"
 width="260.000000pt" height="260.000000pt" viewBox="0 0 260.000000 260.000000"
 preserveAspectRatio="xMidYMid meet">
<metadata>
Created by potrace 1.11, written by Peter Selinger 2001-2013
</metadata>
<g transform="translate(0.000000,260.000000) scale(0.100000,-0.100000)"
fill="#000000" stroke="none">
<path d="M1692 2378 c-78 -38 -62 -1 -313 -705 -52 -145 -97 -263 -101 -263
-6 0 -70 100 -229 358 -79 127 -118 160 -200 169 -44 4 -64 1 -102 -17 -84
-40 -78 -24 -267 -620 -40 -124 -87 -272 -106 -330 -170 -532 -172 -542 -170
-596 8 -161 207 -242 327 -132 40 36 54 65 94 193 20 66 61 194 90 285 29 91
79 246 110 345 31 99 60 183 64 187 3 4 71 -97 149 -223 115 -184 152 -235
183 -255 80 -50 183 -41 247 24 33 33 50 74 152 359 63 177 118 319 121 315 6
-6 26 -80 35 -128 2 -11 51 -223 110 -470 58 -247 107 -456 109 -464 15 -70
30 -103 65 -138 120 -124 330 -43 336 129 1 26 -9 91 -22 145 -32 134 -157
663 -170 723 -3 14 -18 79 -34 145 -30 127 -99 420 -105 446 -7 33 -67 289
-82 350 -25 101 -62 150 -134 175 -56 20 -106 18 -157 -7z"/>
</g>
</svg>
